<svg xmlns="http://www.w3.org/2000/svg" width="1200" height="720" viewBox="0 0 1200 720">
<rect width="100%" height="100%" fill="white"/>
<style>text{font-family:sans-serif;font-size:12px}.title{font-size:16px;font-weight:bold}</style>
<text x="70" y="20" class="title">v47 formal capture — 10-minute rates</text>
<rect x="70" y="35" width="1080" height="285" fill="none" stroke="#888"/>
<text x="5" y="50">Fusion IMU (Hz)</text>
<line x1="70" y1="320.0" x2="1150" y2="320.0" stroke="#ddd"/>
<text x="35" y="324.0">0</text>
<line x1="70" y1="248.8" x2="1150" y2="248.8" stroke="#ddd"/>
<text x="35" y="252.8">52.5</text>
<line x1="70" y1="177.5" x2="1150" y2="177.5" stroke="#ddd"/>
<text x="35" y="181.5">105</text>
<line x1="70" y1="106.2" x2="1150" y2="106.2" stroke="#ddd"/>
<text x="35" y="110.2">157.5</text>
<line x1="70" y1="35.0" x2="1150" y2="35.0" stroke="#ddd"/>
<text x="35" y="39.0">210</text>
<polyline points="84.2,48.5 112.6,48.6 141.1,48.6 169.5,48.6 197.9,48.6 226.3,48.6 254.7,48.5 283.2,48.6 311.6,48.6 340.0,48.6 368.4,48.6 396.8,48.6 425.3,48.6 453.7,48.5 482.1,48.6 510.5,48.6 538.9,48.6 567.4,48.6 595.8,48.6 624.2,48.6 652.6,48.6 681.1,48.6 709.5,48.6 737.9,48.6 766.3,48.6 794.7,48.6 823.2,48.6 851.6,48.6 880.0,48.6 908.4,48.6 936.8,48.6 965.3,48.6 993.7,48.6 1022.1,48.6 1050.5,48.6 1078.9,48.6 1107.4,48.6 1135.8,48.7" fill="none" stroke="#0072B2" stroke-width="1.4"/>
<polyline points="84.2,48.5 112.6,48.6 141.1,48.6 169.5,48.5 197.9,48.6 226.3,48.6 254.7,48.6 283.2,48.6 311.6,48.6 340.0,48.6 368.4,48.6 396.8,48.6 425.3,48.5 453.7,48.6 482.1,48.6 510.5,48.6 538.9,48.6 567.4,48.6 595.8,48.6 624.2,48.6 652.6,48.6 681.1,48.5 709.5,48.6 737.9,48.6 766.3,48.5 794.7,48.6 823.2,48.6 851.6,48.6 880.0,48.6 908.4,48.6 936.8,48.6 965.3,48.6 993.7,48.6 1022.1,48.6 1050.5,48.6 1078.9,48.6 1107.4,48.6 1135.8,48.6" fill="none" stroke="#E69F00" stroke-width="1.4"/>
<polyline points="84.2,48.5 112.6,48.5 141.1,48.6 169.5,48.6 197.9,48.6 226.3,48.6 254.7,48.6 283.2,48.5 311.6,48.6 340.0,48.7 368.4,48.6 396.8,48.6 425.3,48.6 453.7,48.6 482.1,48.6 510.5,48.6 538.9,48.5 567.4,48.6 595.8,48.6 624.2,48.6 652.6,48.5 681.1,48.6 709.5,48.6 737.9,48.6 766.3,48.6 794.7,48.6 823.2,48.6 851.6,48.6 880.0,48.6 908.4,48.6 936.8,48.6 965.3,48.6 993.7,48.6 1022.1,48.6 1050.5,48.6 1078.9,48.6 1107.4,48.6 1135.8,48.5" fill="none" stroke="#009E73" stroke-width="1.4"/>
<polyline points="84.2,48.5 112.6,48.6 141.1,48.6 169.5,48.6 197.9,48.6 226.3,48.5 254.7,48.6 283.2,48.6 311.6,48.5 340.0,48.6 368.4,48.6 396.8,48.6 425.3,48.6 453.7,48.6 482.1,48.5 510.5,48.6 538.9,48.6 567.4,48.6 595.8,48.6 624.2,48.6 652.6,48.6 681.1,48.6 709.5,48.6 737.9,48.6 766.3,48.6 794.7,48.6 823.2,48.7 851.6,48.5 880.0,48.6 908.4,48.6 936.8,48.6 965.3,48.6 993.7,48.6 1022.1,48.6 1050.5,48.6 1078.9,48.6 1107.4,48.6 1135.8,48.6" fill="none" stroke="#D55E00" stroke-width="1.4"/>
<polyline points="84.2,48.6 112.6,48.6 141.1,48.6 169.5,48.6 197.9,48.6 226.3,48.6 254.7,48.6 283.2,48.6 311.6,48.6 340.0,48.6 368.4,48.6 396.8,48.6 425.3,48.7 453.7,48.5 482.1,48.6 510.5,48.6 538.9,48.6 567.4,48.6 595.8,48.6 624.2,48.6 652.6,48.6 681.1,48.6 709.5,48.6 737.9,48.6 766.3,48.6 794.7,48.6 823.2,48.5 851.6,48.6 880.0,48.6 908.4,48.6 936.8,48.6 965.3,48.6 993.7,48.6 1022.1,48.6 1050.5,48.6 1078.9,48.5 1107.4,48.6 1135.8,48.6" fill="none" stroke="#CC79A7" stroke-width="1.4"/>
<polyline points="84.2,48.5 112.6,48.6 141.1,48.6 169.5,48.6 197.9,48.6 226.3,48.6 254.7,48.6 283.2,48.6 311.6,48.6 340.0,48.6 368.4,48.6 396.8,48.6 425.3,48.5 453.7,48.6 482.1,48.6 510.5,48.6 538.9,48.6 567.4,48.5 595.8,48.6 624.2,48.6 652.6,48.6 681.1,48.6 709.5,48.6 737.9,48.6 766.3,48.6 794.7,48.5 823.2,48.6 851.6,48.6 880.0,48.6 908.4,48.6 936.8,48.6 965.3,48.6 993.7,48.6 1022.1,48.6 1050.5,48.6 1078.9,48.6 1107.4,48.5 1135.8,48.6" fill="none" stroke="#56B4E9" stroke-width="1.4"/>
<polyline points="84.2,48.5 112.6,48.6 141.1,48.6 169.5,48.6 197.9,48.6 226.3,48.6 254.7,48.6 283.2,48.6 311.6,48.6 340.0,48.6 368.4,48.5 396.8,48.7 425.3,48.6 453.7,48.6 482.1,48.6 510.5,48.6 538.9,48.6 567.4,48.7 595.8,48.6 624.2,48.6 652.6,48.6 681.1,48.6 709.5,48.6 737.9,48.6 766.3,48.6 794.7,48.6 823.2,48.6 851.6,48.6 880.0,48.6 908.4,48.6 936.8,48.5 965.3,48.6 993.7,48.6 1022.1,48.6 1050.5,48.6 1078.9,48.6 1107.4,48.6 1135.8,48.6" fill="none" stroke="#F0E442" stroke-width="1.4"/>
<polyline points="84.2,48.5 112.6,48.7 141.1,48.5 169.5,48.6 197.9,48.6 226.3,48.6 254.7,48.6 283.2,48.6 311.6,48.6 340.0,48.6 368.4,48.6 396.8,48.6 425.3,48.6 453.7,48.5 482.1,48.6 510.5,48.6 538.9,48.6 567.4,48.6 595.8,48.6 624.2,48.6 652.6,48.6 681.1,48.6 709.5,48.6 737.9,48.5 766.3,48.6 794.7,48.6 823.2,48.6 851.6,48.5 880.0,48.6 908.4,48.6 936.8,48.6 965.3,48.6 993.7,48.6 1022.1,48.6 1050.5,48.6 1078.9,48.6 1107.4,48.6 1135.8,48.6" fill="none" stroke="#000000" stroke-width="1.4"/>
<polyline points="84.2,48.5 112.6,48.6 141.1,48.6 169.5,48.6 197.9,48.6 226.3,48.6 254.7,48.6 283.2,48.6 311.6,48.5 340.0,48.6 368.4,48.6 396.8,48.6 425.3,48.6 453.7,48.6 482.1,48.6 510.5,48.6 538.9,48.6 567.4,48.6 595.8,48.6 624.2,48.6 652.6,48.6 681.1,48.6 709.5,48.6 737.9,48.6 766.3,48.6 794.7,48.6 823.2,48.6 851.6,48.6 880.0,48.5 908.4,48.6 936.8,48.6 965.3,48.6 993.7,48.6 1022.1,48.6 1050.5,48.6 1078.9,48.6 1107.4,48.6 1135.8,48.6" fill="none" stroke="#7F7F7F" stroke-width="1.4"/>
<polyline points="84.2,48.5 112.6,48.5 141.1,48.6 169.5,48.7 197.9,48.5 226.3,48.6 254.7,48.6 283.2,48.6 311.6,48.6 340.0,48.6 368.4,48.6 396.8,48.6 425.3,48.6 453.7,48.6 482.1,48.5 510.5,48.6 538.9,48.6 567.4,48.6 595.8,48.6 624.2,48.6 652.6,48.6 681.1,48.6 709.5,48.6 737.9,48.6 766.3,48.6 794.7,48.6 823.2,48.5 851.6,48.6 880.0,48.6 908.4,48.6 936.8,48.6 965.3,48.6 993.7,48.5 1022.1,48.6 1050.5,48.6 1078.9,48.6 1107.4,48.6 1135.8,48.6" fill="none" stroke="#6A3D9A" stroke-width="1.4"/>
<rect x="70" y="375" width="1080" height="285" fill="none" stroke="#888"/>
<text x="5" y="390">Fusion UWB (Hz)</text>
<line x1="70" y1="660.0" x2="1150" y2="660.0" stroke="#ddd"/>
<text x="35" y="664.0">0</text>
<line x1="70" y1="588.8" x2="1150" y2="588.8" stroke="#ddd"/>
<text x="35" y="592.8">2.5</text>
<line x1="70" y1="517.5" x2="1150" y2="517.5" stroke="#ddd"/>
<text x="35" y="521.5">5</text>
<line x1="70" y1="446.2" x2="1150" y2="446.2" stroke="#ddd"/>
<text x="35" y="450.2">7.5</text>
<line x1="70" y1="375.0" x2="1150" y2="375.0" stroke="#ddd"/>
<text x="35" y="379.0">10</text>
<polyline points="84.2,422.5 112.6,422.5 141.1,422.5 169.5,422.5 197.9,422.5 226.3,422.5 254.7,422.5 283.2,422.5 311.6,422.5 340.0,422.5 368.4,422.5 396.8,422.5 425.3,422.5 453.7,422.5 482.1,422.5 510.5,422.5 538.9,422.5 567.4,422.5 595.8,422.5 624.2,422.5 652.6,422.5 681.1,422.5 709.5,422.5 737.9,422.5 766.3,422.5 794.7,422.5 823.2,422.5 851.6,422.5 880.0,422.5 908.4,422.5 936.8,422.5 965.3,422.5 993.7,422.5 1022.1,422.5 1050.5,422.5 1078.9,422.5 1107.4,422.5 1135.8,422.5" fill="none" stroke="#0072B2" stroke-width="1.4"/>
<polyline points="84.2,422.5 112.6,422.5 141.1,422.5 169.5,422.5 197.9,422.5 226.3,422.5 254.7,422.5 283.2,422.5 311.6,422.5 340.0,422.5 368.4,422.5 396.8,422.5 425.3,422.5 453.7,422.5 482.1,422.5 510.5,422.5 538.9,422.5 567.4,422.5 595.8,422.5 624.2,422.5 652.6,422.5 681.1,422.5 709.5,422.5 737.9,422.5 766.3,422.5 794.7,422.5 823.2,422.5 851.6,422.5 880.0,422.5 908.4,422.5 936.8,422.5 965.3,422.5 993.7,422.5 1022.1,422.5 1050.5,422.5 1078.9,422.5 1107.4,422.5 1135.8,422.5" fill="none" stroke="#E69F00" stroke-width="1.4"/>
<polyline points="84.2,422.5 112.6,422.5 141.1,422.5 169.5,422.5 197.9,422.5 226.3,422.5 254.7,422.5 283.2,422.5 311.6,422.5 340.0,422.5 368.4,422.5 396.8,422.5 425.3,422.5 453.7,422.5 482.1,422.5 510.5,422.5 538.9,422.5 567.4,422.5 595.8,422.5 624.2,422.5 652.6,422.5 681.1,422.5 709.5,422.5 737.9,422.5 766.3,422.5 794.7,422.5 823.2,422.5 851.6,422.5 880.0,422.5 908.4,422.5 936.8,422.5 965.3,422.5 993.7,422.5 1022.1,422.5 1050.5,422.5 1078.9,422.5 1107.4,422.5 1135.8,422.5" fill="none" stroke="#009E73" stroke-width="1.4"/>
<polyline points="84.2,432.2 112.6,422.5 141.1,422.5 169.5,422.5 197.9,422.5 226.3,422.5 254.7,422.5 283.2,422.5 311.6,422.5 340.0,422.5 368.4,422.5 396.8,422.5 425.3,422.5 453.7,422.5 482.1,422.5 510.5,422.5 538.9,422.5 567.4,422.5 595.8,422.5 624.2,422.5 652.6,422.5 681.1,422.5 709.5,422.5 737.9,422.5 766.3,422.5 794.7,422.5 823.2,422.5 851.6,422.5 880.0,422.5 908.4,422.5 936.8,422.5 965.3,422.5 993.7,422.5 1022.1,422.5 1050.5,422.5 1078.9,422.5 1107.4,422.5 1135.8,422.5" fill="none" stroke="#D55E00" stroke-width="1.4"/>
<polyline points="84.2,422.5 112.6,422.5 141.1,422.5 169.5,422.5 197.9,422.5 226.3,422.5 254.7,422.5 283.2,422.5 311.6,422.5 340.0,422.5 368.4,422.5 396.8,422.5 425.3,422.5 453.7,422.5 482.1,422.5 510.5,422.5 538.9,422.5 567.4,422.5 595.8,422.5 624.2,422.5 652.6,422.5 681.1,422.5 709.5,422.5 737.9,422.5 766.3,422.5 794.7,422.5 823.2,422.5 851.6,422.5 880.0,422.5 908.4,422.5 936.8,422.5 965.3,422.5 993.7,422.5 1022.1,422.5 1050.5,422.5 1078.9,422.5 1107.4,422.5 1135.8,422.5" fill="none" stroke="#CC79A7" stroke-width="1.4"/>
<polyline points="84.2,422.5 112.6,422.5 141.1,422.5 169.5,422.5 197.9,422.5 226.3,422.5 254.7,422.5 283.2,422.5 311.6,422.5 340.0,422.5 368.4,422.5 396.8,422.5 425.3,422.5 453.7,422.5 482.1,422.5 510.5,422.5 538.9,422.6 567.4,422.5 595.8,422.5 624.2,422.5 652.6,422.5 681.1,422.5 709.5,422.5 737.9,422.5 766.3,422.5 794.7,422.5 823.2,422.5 851.6,422.5 880.0,422.5 908.4,422.5 936.8,422.5 965.3,422.5 993.7,422.5 1022.1,422.5 1050.5,422.5 1078.9,422.5 1107.4,422.5 1135.8,422.5" fill="none" stroke="#56B4E9" stroke-width="1.4"/>
<polyline points="84.2,422.5 112.6,422.5 141.1,422.5 169.5,422.5 197.9,422.5 226.3,422.5 254.7,422.5 283.2,422.5 311.6,422.5 340.0,422.5 368.4,422.5 396.8,422.5 425.3,422.5 453.7,422.5 482.1,422.5 510.5,422.5 538.9,422.5 567.4,422.5 595.8,422.5 624.2,422.5 652.6,422.5 681.1,422.5 709.5,422.5 737.9,422.5 766.3,422.5 794.7,422.5 823.2,422.5 851.6,422.5 880.0,422.5 908.4,422.5 936.8,422.5 965.3,422.5 993.7,422.5 1022.1,422.5 1050.5,422.5 1078.9,422.5 1107.4,422.5 1135.8,422.5" fill="none" stroke="#F0E442" stroke-width="1.4"/>
<polyline points="84.2,422.4 112.6,422.5 141.1,422.5 169.5,422.5 197.9,422.5 226.3,422.5 254.7,422.5 283.2,422.5 311.6,422.5 340.0,422.5 368.4,422.5 396.8,422.5 425.3,422.5 453.7,422.5 482.1,422.5 510.5,422.5 538.9,422.5 567.4,422.5 595.8,422.5 624.2,422.5 652.6,422.5 681.1,422.5 709.5,422.5 737.9,422.5 766.3,422.5 794.7,422.5 823.2,422.5 851.6,422.5 880.0,422.5 908.4,422.5 936.8,422.5 965.3,422.5 993.7,422.5 1022.1,422.5 1050.5,422.5 1078.9,422.5 1107.4,422.5 1135.8,422.5" fill="none" stroke="#000000" stroke-width="1.4"/>
<polyline points="84.2,422.4 112.6,422.5 141.1,422.5 169.5,422.5 197.9,422.5 226.3,422.5 254.7,422.5 283.2,422.5 311.6,422.5 340.0,422.5 368.4,422.5 396.8,422.5 425.3,422.5 453.7,422.5 482.1,422.5 510.5,422.5 538.9,422.5 567.4,422.5 595.8,422.5 624.2,422.5 652.6,422.5 681.1,422.5 709.5,422.5 737.9,422.5 766.3,422.5 794.7,422.5 823.2,422.5 851.6,422.5 880.0,422.5 908.4,422.5 936.8,422.5 965.3,422.5 993.7,422.5 1022.1,422.5 1050.5,422.5 1078.9,422.5 1107.4,422.5 1135.8,422.5" fill="none" stroke="#7F7F7F" stroke-width="1.4"/>
<polyline points="84.2,422.5 112.6,422.5 141.1,422.5 169.5,422.5 197.9,422.5 226.3,422.5 254.7,422.5 283.2,422.5 311.6,422.5 340.0,422.5 368.4,422.5 396.8,422.5 425.3,422.5 453.7,422.5 482.1,422.5 510.5,422.5 538.9,422.5 567.4,422.5 595.8,422.5 624.2,422.5 652.6,422.5 681.1,422.5 709.5,422.5 737.9,422.5 766.3,422.5 794.7,422.5 823.2,422.5 851.6,422.5 880.0,422.5 908.4,422.5 936.8,422.5 965.3,422.5 993.7,422.5 1022.1,422.5 1050.5,422.5 1078.9,422.5 1107.4,422.5 1135.8,422.5" fill="none" stroke="#6A3D9A" stroke-width="1.4"/>
<line x1="70" y1="686" x2="92" y2="686" stroke="#0072B2" stroke-width="3"/>
<text x="97" y="690">BSF3C79</text>
<line x1="275" y1="686" x2="297" y2="686" stroke="#E69F00" stroke-width="3"/>
<text x="302" y="690">BSFC2CC</text>
<line x1="480" y1="686" x2="502" y2="686" stroke="#009E73" stroke-width="3"/>
<text x="507" y="690">BSF44AD</text>
<line x1="685" y1="686" x2="707" y2="686" stroke="#D55E00" stroke-width="3"/>
<text x="712" y="690">BSF6C53</text>
<line x1="890" y1="686" x2="912" y2="686" stroke="#CC79A7" stroke-width="3"/>
<text x="917" y="690">BSF8BC4</text>
<line x1="70" y1="703" x2="92" y2="703" stroke="#56B4E9" stroke-width="3"/>
<text x="97" y="707">BSF1120</text>
<line x1="275" y1="703" x2="297" y2="703" stroke="#F0E442" stroke-width="3"/>
<text x="302" y="707">BSF31CC</text>
<line x1="480" y1="703" x2="502" y2="703" stroke="#000000" stroke-width="3"/>
<text x="507" y="707">BSFAA61</text>
<line x1="685" y1="703" x2="707" y2="703" stroke="#7F7F7F" stroke-width="3"/>
<text x="712" y="707">BSFB165</text>
<line x1="890" y1="703" x2="912" y2="703" stroke="#6A3D9A" stroke-width="3"/>
<text x="917" y="707">BSFEC35</text>
</svg>
